<svg xmlns="http://www.w3.org/2000/svg" fill="none" viewBox="0 0 1000 1000"><path fill="#314F9C" d="M342.898 201.081s-79.2-29-111-3.2c-36.1 29.1-45.3 47.6-38.8 93.7"/><path stroke="#314F9C" stroke-linecap="round" stroke-linejoin="round" stroke-width="3" d="M342.898 201.081s-79.2-29-111-3.2c-36.1 29.1-45.3 47.6-38.8 93.7"/><path fill="#fff" d="m205.798 437.881-4.3 1.8c-15.6 6.4-69.8 25.3-90.9-5.8-36.1-53 87.7-144 87.7-144-5.4 4.1 93.2-63.9 101.5-68.7 12-6.9 103.1-56.6 158.6-24.8 63.4 36.3-27 104.5-30.7 105.2"/><path stroke="#314F9C" stroke-linecap="round" stroke-linejoin="round" stroke-width="3" d="m205.798 437.881-4.3 1.8c-15.6 6.4-69.8 25.3-90.9-5.8-36.1-53 87.7-144 87.7-144-5.4 4.1 93.2-63.9 101.5-68.7 12-6.9 103.1-56.6 158.6-24.8 63.4 36.3-27 104.5-30.7 105.2"/><path fill="#fff" d="M418.998 292.081s87.7-59.2 8.7-86.9c-70.2-24.7-230.2 109.2-249.6 129.7-9 9.3-50.2 59.2-54.4 79.3-5.3 25.3 14 29.1 32.4 27.4 16.4-1.6 48.4-15.1 50.5-15.9"/><path stroke="#314F9C" stroke-linecap="round" stroke-linejoin="round" stroke-width="3" d="M418.998 292.081s87.7-59.2 8.7-86.9c-70.2-24.7-230.2 109.2-249.6 129.7-9 9.3-50.2 59.2-54.4 79.3-5.3 25.3 14 29.1 32.4 27.4 16.4-1.6 48.4-15.1 50.5-15.9"/><path fill="#F1E300" stroke="#314F9C" stroke-linecap="round" stroke-linejoin="round" stroke-width="3" d="M426.398 232.181s-27.2 22.7-5.2 24.8c22 2.1 26.2-19.8 26.3-24.8.1-5-10.2-11.6-21.1 0ZM163.198 386.281s-19 37.8 2.4 32.8 35.6-20.5 21-35.1c-14.6-14.6-23.4 2.3-23.4 2.3Z"/><path fill="#F1E300" stroke="#314F9C" stroke-linecap="round" stroke-miterlimit="10" stroke-width="3" d="M224.398 311.881c-7.3 7-6 13.6 0 16 6 2.4 30.3-3.9 37.7-19 7.4-15.1-6.3-23.4-15.1-17-8.8 6.4-15.3 12.9-22.6 20ZM339.298 242.081s-39.7 28.8-12.8 28.8c11.6 0 37.9-12.1 35-23.8-2.9-11.7-9.3-11.9-22.2-5Z"/><path fill="#1BB6C9" d="M410.898 281.181c-9.3-8.1-13.8-13.9-56.9-7.9-20.5 2.9-43.6 12.1-63.7 24.9-46.7 29.7-84.9 71.5-86.9 80.9-1.7 7.7.7 30 35.8 21.2 35.1-8.8 107.3-51.4 119.1-59.2 11.8-7.8 69.2-45.7 52.6-59.9Z"/><path stroke="#314F9C" stroke-linecap="round" stroke-linejoin="round" stroke-width="3" d="m385.398 264.181 7.9-29.1"/><path stroke="#314F9C" stroke-linecap="round" stroke-miterlimit="10" stroke-width="3" d="m285.398 280.081 4.9 18.1M195.798 350.481l26.2 3.9"/><path fill="#F1E300" d="M727.498 833.981s24.8 8.2 33.3 20.1c8.5 11.9 25.5-14.7 25.4-21.3 0-2.5.8-14.3-7.9-21.4-8.7-7.1-17.9-11.6-32.3-9.6-14.4 2-49.5 19.9-18.5 32.2Z"/><path stroke="#314F9C" stroke-linecap="round" stroke-linejoin="round" stroke-width="3" d="M727.498 833.981s24.8 8.2 33.3 20.1c8.5 11.9 25.5-14.7 25.4-21.3 0-2.5.8-14.3-7.9-21.4-8.7-7.1-17.9-11.6-32.3-9.6-14.4 2-49.5 19.9-18.5 32.2"/><path stroke="#314F9C" stroke-linecap="round" stroke-linejoin="round" stroke-width="3" d="M772.098 818.781c2 .7 9.8 27.8-8.8 27.9"/><path fill="#F1E300" stroke="#314F9C" stroke-linecap="round" stroke-linejoin="round" stroke-width="3" d="M744.298 848.081s7.3-22 21.8-14.4c10.5 5.5 4.9 12.9.9 16.6a6.3 6.3 0 0 1-5.7 1.6c-2.4-.5-5.8-.5-7.6 2.3-3.1 4.7-12.7.8-9.4-6.1Z"/><path stroke="#314F9C" stroke-linecap="round" stroke-linejoin="round" stroke-width="3" d="M764.498 842.281v8.8"/><path fill="#F1E300" stroke="#314F9C" stroke-linecap="round" stroke-linejoin="round" stroke-width="3" d="M158.498 652.581s8.3-12.4 16.1-15.3c7.8-2.9-4.2-16.3-7.8-17.2-1.4-.4-7.8-2.6-13 1.1s-9.1 8.1-10.2 16.3c-1.1 8.2 3.5 30.3 14.9 15.1Z"/><path stroke="#314F9C" stroke-linecap="round" stroke-linejoin="round" stroke-width="3" d="M152.098 626.681c.2-1.2 14.8-7.9 16.5 2.5"/><path fill="#EB3D8D" stroke="#314F9C" stroke-linecap="round" stroke-linejoin="round" stroke-width="3" d="m221.598 177.381 10.3 20.5 7.4-6.5s-14-17.7-12.5-19.9c1.5-2.2 8.7-20.4-5.2-26.3-13.9-5.9-27.7 0-25.5 19.8 2.2 19.8 25.5 12.4 25.5 12.4Z"/><path fill="#F1E300" stroke="#314F9C" stroke-linecap="round" stroke-linejoin="round" stroke-width="3" d="M319.998 778.981s-12.9-1.4-24.4 13.3c-11.5 14.7-20.4 27-20.4 27s-5.8 15.3 14.9 31.7c0 0 65.2-11.5 67.8-13.4 2.6-1.9 34.3-20.3 11.5-45.9-22.8-25.6-49.4-12.7-49.4-12.7Z"/><path stroke="#314F9C" stroke-linecap="round" stroke-linejoin="round" stroke-width="3" d="M356.098 794.481s18.6 22.6-2.1 36.7M332.898 785.081c1.2 0 10.6.9 11.1 4.8"/><path stroke="#314F9C" stroke-linecap="round" stroke-miterlimit="10" stroke-width="3" d="M241.198 771.381s-9.3 81.1-4.5 83.9M261.998 804.781l-5.8 52.8M244.198 828.881l-.9 28.8M282.798 832.581s-2.3 18.8-5.3 24.3M798.398 793.981s27.9 27.8 22.4 61.6M831.898 828.981s4.7 21.1 1.7 26.6M666.098 855.481s-2.3-18.9-5.3-24.3M700.298 804.781c0 .3 12.8 42.4 9.1 51.5M318.398 477.081l11.4 11.5M425.698 326.781l8.7 10.3M223.698 414.381l16.3 45.1M702.798 737.581l4.9 15.5M347.698 387.381l8.2 7.5M508.798 445.881l8.2 7.5M408.998 498.081l8.7 17.2M394.898 833.181l7.3 14.5M411.298 649.581l4.2 15.6M230.298 610.481l5.7 15.2M457.198 827.781v27.7M308.198 713.181l14.7 24M348.398 601.981l-6.4 31.1M658.298 790.481c21.5 7.9 43 66.6 43 66.6M543.598 786.281l36.7 30M592.498 566.081l28.1 21.3M247.998 586.881l4.2 15.6M467.398 840.381l4.3 15.7M435.998 387.381l4.4 15.7M571.798 513.681l9.5 13.2"/><path stroke="#314F9C" stroke-linecap="round" stroke-linejoin="round" stroke-width="3" d="m148.898 804.781 21.4 52.8M150.398 844.181l-1.5 13.6"/><path stroke="#314F9C" stroke-linecap="round" stroke-miterlimit="10" stroke-width="3" d="m272.298 376.481-2.4 28.2"/><path fill="#F1E300" stroke="#314F9C" stroke-linecap="round" stroke-linejoin="round" stroke-width="3" d="M414.498 825.781s-3.9-12.3 10.5-14.7c14.4-2.4 6.4 12.5 6.4 12.5s-33.3 23-16.9 2.2Z"/><path stroke="#314F9C" stroke-linecap="round" stroke-linejoin="round" stroke-width="3" d="m427.898 818.981 3.5 4.5"/><path fill="#F1E300" stroke="#314F9C" stroke-linecap="round" stroke-linejoin="round" stroke-width="3" d="M411.498 716.681s23-6.9 25.3 17.8c2.3 24.7-16.9 16-23.7 11.2-6.8-4.8-14.9-23.3-1.6-29Z"/><path stroke="#314F9C" stroke-linecap="round" stroke-linejoin="round" stroke-width="3" d="M430.898 735.481s-.5 14.3-7.8 8.5"/><path stroke="#314F9C" stroke-linecap="round" stroke-miterlimit="10" stroke-width="3" d="m425.298 289.081 7.6 9.1M439.798 274.781l7.7 7.8M452.598 259.581l11.3 5.8M459.998 243.281h15.6M459.998 227.381l15.6-12.4M449.798 213.181l10.9-11.1M432.898 205.181l9.1-15.4M417.098 202.081l4.6-14.9M405.798 202.081l-4.4-15.6M388.598 204.281l-6.9-14.5M371.798 207.681l-5.8-13.1M357.998 213.181l-10.3-13.9M339.398 221.681l-8.9-14M324.598 229.081l-7.5-15.9M313.598 235.081l-11.2-14M301.598 242.081l-13.1-12.3M287.798 250.581l-12.4-13.1M273.898 259.581l-9.4-12.4M259.698 269.281l-9.6-15.1M247.798 277.781l-11.2-12.4M231.898 289.081l-12.3-13.5M219.598 296.881l-13.8-9.4M208.898 307.781c-1 .8-16.3-10.9-16.3-10.9M194.698 319.581l-18.5-11.8M183.498 329.581c-.4.4-19.3-11-19.3-11M170.298 343.681l-19.9-11.7M160.298 352.481c-1.1-.5-22.9-6.5-22.9-6.5M148.898 370.581l-24.1-8.7M195.998 429.881l-1.3 9.8"/><path stroke="#314F9C" stroke-linecap="round" stroke-linejoin="round" stroke-width="3" d="m203.598 426.881-2.1 12.8M180.398 435.481l-4.2 9M167.598 439.681l-7.3 10M150.398 442.381l-1.5 7.3M141.598 442.381l-7 7.3M130.298 439.681l-7.5 5M124.198 429.881l-11.3 7.1M121.498 422.481h-16.2"/><path fill="#fff" d="m122.798 410.481-17.5-8.2 17.5 8.2Z"/><path stroke="#314F9C" stroke-linecap="round" stroke-linejoin="round" stroke-width="3" d="m122.798 410.481-17.5-8.2"/><path fill="#fff" d="M130.298 396.981c-3.7-2.2-20.8-3.5-20.8-3.5l20.8 3.5Z"/><path stroke="#314F9C" stroke-linecap="round" stroke-linejoin="round" stroke-width="3" d="M130.298 396.981c-3.7-2.2-20.8-3.5-20.8-3.5"/><path fill="#fff" d="M138.098 384.581c-1.2-1.5-22.9-8.1-22.9-8.1l22.9 8.1Z"/><path stroke="#314F9C" stroke-linecap="round" stroke-linejoin="round" stroke-width="3" d="M138.098 384.581c-1.2-1.5-22.9-8.1-22.9-8.1"/><path fill="#fff" stroke="#314F9C" stroke-linecap="round" stroke-linejoin="round" stroke-width="3" d="m423.998 639.981 123.2-63.6s23.2 47.8 31.3 60.3l.2.3-.3.2c-6.3 3.6-106.2 61.6-106.6 59.9-.4-1.7-47.8-57.1-47.8-57.1Z"/><path fill="#314F9C" stroke="#314F9C" stroke-linecap="round" stroke-linejoin="round" stroke-width="3" d="m425.198 673.581 47.7 49.1 102.2-57.4 3.5-29.3-105.8 60.1.1 26.6-.1-26.6-47.6-22.5Z"/><path stroke="#314F9C" stroke-linecap="round" stroke-linejoin="round" stroke-width="3" d="m462.698 652.681 77.7-47.2 9.2 26.1-66.1 39.7-20.8-18.6Z"/><path fill="#1BB6C9" stroke="#314F9C" stroke-linecap="round" stroke-linejoin="round" stroke-width="3" d="m423.998 639.981 47.8 57.1 1.1 25.6-47.7-49.1-1.2-33.6Z"/><path fill="#fff" d="m483.498 668.581 63.5-37.8-4.3-12.7-69.9 41.3 10.7 9.2Z"/><path fill="#314F9C" d="m474.098 662.781 71.4-42.7-5.1-14.6-77.7 47.2 11.4 10.1ZM263.798 502.581l7.2-2.5 10-49.4-12.6 11.6-4.6 40.3-14.9 5.1-15.8 13.6 4.5 10.2 12.5-6.7-2.2 89 13.9-17.7 31.7 6.4-11.5 18.2-34.1-6.9"/><path stroke="#314F9C" stroke-linecap="round" stroke-linejoin="round" stroke-width="3" d="m263.798 502.581 7.2-2.5 10-49.4-12.6 11.6-4.6 40.3Zm0 0-14.9 5.1-15.8 13.6 4.5 10.2 12.5-6.7-2.2 89 13.9-17.7 31.7 6.4-11.5 18.2-34.1-6.9"/><path fill="#fff" stroke="#314F9C" stroke-linecap="round" stroke-linejoin="round" stroke-width="3" d="m280.998 450.681 20.1-2.7-9.9 48.7 48.4 5.2-46.1 100.6-31.7-6.4 9.9-76.7-21.6 5.4-1.2-17.1 22.1-7.6 10-49.4Z"/><path stroke="#314F9C" stroke-linecap="round" stroke-linejoin="round" stroke-width="3" d="m284.098 514.781 34.3 3.7-38.2 55.9 3.9-59.6ZM237.598 531.481l10.2 4.5"/><path fill="#314F9C" stroke="#314F9C" stroke-miterlimit="10" stroke-width="3" d="m283.398 526.281 28.8 1.3 6.2-9.1-34.3-3.7-.7 11.5Z"/><path fill="#1BB6C9" stroke="#314F9C" stroke-linecap="round" stroke-linejoin="round" stroke-width="3" d="m271.698 519.381-21.6 5.4-2.2 89 13.9-17.7 9.9-76.7ZM263.998 501.081l7-1 9.5-47.1-12.1 9.3-4.4 38.8ZM248.998 508.481l1.1 16.3-12.5 6.7-4.5-10.2 15.9-12.8Z"/><path fill="#fff" d="m285.598 528.881 22.6.7-25 36.4 2.4-37.1Z"/><path fill="#1BB6C9" stroke="#314F9C" stroke-linecap="round" stroke-linejoin="round" stroke-width="3" d="m610.898 746.481 35.7-52.2 17.3 5.3 11.6-14.7-17.1-9.8 25.8-53.1-27.8-9.9s-53.8 51.8-67.1 60.9l28.8 12.9-30.9 58.7 23.7 1.9Z"/><path fill="#314F9C" stroke="#314F9C" stroke-linecap="round" stroke-linejoin="round" stroke-width="3" d="m619.798 665.081 14.8 5.1 17.6-37.8-32.4 32.7Z"/><path fill="#fff" stroke="#314F9C" stroke-linecap="round" stroke-linejoin="round" stroke-width="3" d="m684.298 621.981 7.6 13-23.3 45.9-10.1-5.8 25.8-53.1ZM675.498 684.781l6.8 16.4-9.9 20-8.5-21.6 11.6-14.8ZM646.598 694.281l4.2 23.5-29.2 43.5-9.2-15.7 34.2-51.3Z"/><path fill="#314F9C" stroke="#314F9C" stroke-linecap="round" stroke-linejoin="round" stroke-width="3" d="m588.498 673.481 1.2 24.9 17.3 7.6 8.2-18.4-26.7-14.1ZM649.898 716.181l21.2 5.8-7.8-23.3-16.7-4.4 3.3 21.9ZM587.198 744.581l8.6 18.5 24.8-1.2-10.2-16.3-23.2-1Z"/><path fill="#fff" d="M481.798 521.781c-8 3.8 9.5 51.7 39.6 49.7s24.7-35.8 24.7-35.8l2.9-6.1-10.2 3c5.9-5.2-24-25.6-24-25.6l5.1-11-14 7.3-11.7-1.4s-61.4-62.9-78.9-62.9c0 0-31.4-74.5-45.3-68-13.9 6.5 42.4 70.9 31.4 70.9s-35.7-24.3-39.9-16.3c-4.2 8 7.7 4 27.5 26.9 8.8 10.2-7 5.9-21.1-4-14.1-9.9-15.4-8.8-15.4-8.8-3.7 5-6.9 11.6 38 32.9 53.1 25.4 86.1 63.4 89.4 117 2.5 40.5 18.7 19.7 14.3 3.6-4.4-16.1-7.5-41.2.6-34.2s16.4 49.6 25.1 45.2c8.7-4.4 1-15.6 1.5-32.7"/><path stroke="#314F9C" stroke-linecap="round" stroke-linejoin="round" stroke-width="3" d="M481.798 521.781c-8 3.8 9.5 51.7 39.6 49.7s24.7-35.8 24.7-35.8l2.9-6.1-10.2 3c5.9-5.2-24-25.6-24-25.6l5.1-11-14 7.3-11.7-1.4s-61.4-62.9-78.9-62.9c0 0-31.4-74.5-45.3-68-13.9 6.5 42.4 70.9 31.4 70.9s-35.7-24.3-39.9-16.3c-4.2 8 7.7 4 27.5 26.9 8.8 10.2-7 5.9-21.1-4-14.1-9.9-15.4-8.8-15.4-8.8-3.7 5-6.9 11.6 38 32.9 53.1 25.4 86.1 63.4 89.4 117 2.5 40.5 18.7 19.7 14.3 3.6-4.4-16.1-7.5-41.2.6-34.2s16.4 49.6 25.1 45.2c8.7-4.4 1-15.6 1.5-32.7"/><path fill="#314F9C" d="M514.598 525.181a1.7 1.7 0 1 0 0-3.4 1.7 1.7 0 0 0 0 3.4ZM533.198 544.181a2 2 0 1 0 0-4 2 2 0 0 0 0 4ZM503.398 558.881c21.3 19 27.7-1.5 26.5-6.4-1.9-7.3-18.4-24.7-27.9-24.7-5.9 0-21.8 10.3 1.4 31.1Z"/><path fill="#fff" stroke="#fff" stroke-linecap="round" stroke-miterlimit="10" stroke-width="2" d="m504.198 527.981-2.4 5.6 9.2-2.3-6.8-3.3ZM524.798 545.381l-1.7 6.6 6.5-.7-4.8-5.9Z"/><path stroke="#314F9C" stroke-linecap="round" stroke-linejoin="round" stroke-width="2" d="m484.498 610.681-3 5.5M487.798 612.281l.1 6.8M491.098 611.581l1.9 6.5M519.498 604.181l1.9 6.5M523.598 602.681l2.9 6.1M515.898 603.081l-2.3 6.3"/><path stroke="#1BB6C9" stroke-linecap="round" stroke-miterlimit="10" stroke-width="2" d="M205.798 853.181v-5"/><path stroke="#1BB6C9" stroke-dasharray="9.94 9.94" stroke-linecap="round" stroke-miterlimit="10" stroke-width="2" d="m205.798 838.281 2.1-412.6-4-41.5c-.4-3.4 1.8-6.7 3.8-9.5 2-2.8 4.3-5.8 7.6-9.8 13.9-17 45.4-45.2 79.7-66.7 36.2-22.6 62.2-24.7 87-25.3 11.1-.2 26.1 2.7 31.9 14.6l476.4 561.8"/><path stroke="#1BB6C9" stroke-linecap="round" stroke-miterlimit="10" stroke-width="2" d="m893.498 853.081 3.2 3.8"/><path stroke="#314F9C" stroke-linecap="round" stroke-linejoin="round" stroke-width="3" d="m832.698 623.281-21.4 47.3M812.698 651.281s-18.5-22.8-.8-33c0 0 9.4-30.7 18.7-20.6 0 0 15.2 14.8 4.4 20.1 0 0 37.7-17.6 24.3 5.6-13.4 23.2-13.2 14.4-13.2 14.4s18.7 19.8-2.5 20.8-26.7-.6-26.7-.6l-4.2-6.7ZM851.398 626.181l-4.8 3.4"/><path stroke="#314F9C" stroke-linecap="round" stroke-linejoin="round" stroke-width="3" d="M810.499 629.581s1.2 14.6 4.5 16.7M830.198 635.281l-3.6 1.5M828.398 626.681l.9 4"/></svg>